<?xml version="1.0" encoding="UTF-8"?>
<svg id="Capa_2" xmlns="http://www.w3.org/2000/svg" xmlns:xlink="http://www.w3.org/1999/xlink" viewBox="0 0 122.8 83.44">
  <defs>
    <style>
      .cls-1 {
        fill: #fff;
      }

      .cls-2 {
        fill: url(#Degradado_sin_nombre_45);
      }

      .cls-3 {
        fill: #a21008;
      }

      .cls-4 {
        fill: #e20613;
      }

      .cls-5 {
        fill: #f19495;
      }

      .cls-6 {
        fill: url(#Degradado_sin_nombre_45-2);
      }
    </style>
    <linearGradient id="Degradado_sin_nombre_45" data-name="Degradado sin nombre 45" x1="61.4" y1="16.71" x2="61.4" y2="52.42" gradientUnits="userSpaceOnUse">
      <stop offset="0" stop-color="#e20613" stop-opacity="0"/>
      <stop offset="1" stop-color="#a41008"/>
    </linearGradient>
    <linearGradient id="Degradado_sin_nombre_45-2" data-name="Degradado sin nombre 45" x1="103.12" y1="32.49" x2="119.83" y2="32.49" xlink:href="#Degradado_sin_nombre_45"/>
  </defs>
  <g id="Capa_1-2" data-name="Capa_1">
    <g>
      <g>
        <path class="cls-4" d="M23.66,8.92c.49,0,.88.13,1.17.4.29.27.44.64.44,1.12s-.15.85-.44,1.12-.69.4-1.17.4h-5.55c-.73,0-1.27-.18-1.62-.54-.35-.36-.52-.92-.52-1.7V2.02c0-.63.17-1.13.51-1.48.34-.36.79-.54,1.37-.54s1.03.18,1.37.54.51.85.51,1.48v6.9h3.93Z"/>
        <path class="cls-4" d="M28.44,2.02c0-.63.17-1.13.51-1.48.34-.36.79-.54,1.37-.54s1.03.18,1.37.54c.34.36.51.85.51,1.48v8.12c0,.63-.17,1.13-.51,1.48-.34.36-.79.54-1.37.54s-1.03-.18-1.37-.54c-.34-.36-.51-.85-.51-1.48V2.02Z"/>
        <path class="cls-4" d="M36.4,2.45c0-.77.17-1.34.52-1.7.35-.36.89-.54,1.62-.54h3.9c.77,0,1.42.08,1.96.24.53.16.96.37,1.29.64s.56.58.7.94c.14.35.21.74.21,1.15,0,.64-.13,1.17-.38,1.58-.26.41-.68.7-1.28.85v.03c.7.13,1.23.45,1.61.96.37.51.56,1.14.56,1.89,0,1.01-.38,1.84-1.13,2.49s-1.84.97-3.28.97h-4.16c-.73,0-1.27-.18-1.62-.54-.35-.36-.52-.92-.52-1.7V2.45ZM41.9,4.99c.35,0,.63-.11.83-.32s.31-.46.31-.74c0-.34-.09-.6-.28-.79-.19-.19-.47-.29-.86-.29h-1.84v2.14h1.84ZM41.94,9.32c.47,0,.84-.1,1.11-.29.27-.2.41-.48.41-.85s-.14-.65-.41-.84c-.27-.19-.64-.29-1.11-.29h-1.88v2.27h1.88Z"/>
        <path class="cls-4" d="M50.57,2.45c0-.78.18-1.35.55-1.7.36-.35.95-.53,1.75-.53h4.16c1.36,0,2.39.32,3.1.95.71.63,1.06,1.43,1.06,2.38,0,.75-.21,1.37-.64,1.86-.42.49-1.01.8-1.75.95v.03c.64.04,1.14.2,1.51.46.36.26.58.69.66,1.27l.13.98c.05.35.1.65.12.91.03.26.04.51.04.73,0,.42-.17.77-.51,1.04-.34.27-.73.4-1.17.4-.58,0-1.05-.13-1.42-.39-.37-.26-.59-.67-.65-1.22l-.18-1.55c-.05-.45-.22-.76-.51-.95-.28-.18-.66-.28-1.14-.28h-1.47v2.43c0,.63-.16,1.11-.47,1.45-.32.34-.77.51-1.35.51s-1.04-.17-1.35-.51c-.32-.34-.47-.82-.47-1.45V2.45ZM56.1,5.34c.54,0,.94-.09,1.17-.27s.36-.47.36-.87-.12-.69-.36-.87-.63-.27-1.17-.27h-1.88v2.28h1.88Z"/>
        <path class="cls-4" d="M65.1,2.45c0-.77.17-1.34.52-1.7.35-.36.89-.54,1.62-.54h5.97c.54,0,.95.12,1.22.37.27.24.41.58.41,1s-.14.76-.41,1-.68.37-1.22.37h-4.36v1.65h3.49c.54,0,.95.12,1.22.37.27.24.41.58.41,1s-.14.76-.41,1c-.27.24-.68.37-1.22.37h-3.49v1.88h4.54c.54,0,.95.12,1.22.37.27.24.41.58.41,1s-.14.76-.41,1c-.27.24-.68.37-1.22.37h-6.15c-.73,0-1.27-.18-1.62-.54-.35-.36-.52-.92-.52-1.7V2.45Z"/>
        <path class="cls-4" d="M78.3,2.45c0-.78.18-1.35.55-1.7.36-.35.95-.53,1.75-.53h4.16c1.36,0,2.39.32,3.1.95.71.63,1.06,1.43,1.06,2.38,0,.75-.21,1.37-.64,1.86-.42.49-1.01.8-1.75.95v.03c.64.04,1.14.2,1.51.46.36.26.58.69.66,1.27l.13.98c.05.35.1.65.12.91.03.26.04.51.04.73,0,.42-.17.77-.51,1.04-.34.27-.73.4-1.17.4-.58,0-1.05-.13-1.42-.39-.37-.26-.59-.67-.65-1.22l-.18-1.55c-.05-.45-.22-.76-.51-.95-.28-.18-.66-.28-1.14-.28h-1.47v2.43c0,.63-.16,1.11-.47,1.45-.32.34-.77.51-1.35.51s-1.04-.17-1.35-.51c-.32-.34-.47-.82-.47-1.45V2.45ZM83.83,5.34c.54,0,.94-.09,1.17-.27s.36-.47.36-.87-.12-.69-.36-.87-.63-.27-1.17-.27h-1.88v2.28h1.88Z"/>
        <path class="cls-4" d="M92.79,2.02c0-.63.17-1.13.51-1.48.34-.36.79-.54,1.37-.54s1.03.18,1.37.54c.34.36.51.85.51,1.48v8.12c0,.63-.17,1.13-.51,1.48-.34.36-.79.54-1.37.54s-1.03-.18-1.37-.54c-.34-.36-.51-.85-.51-1.48V2.02Z"/>
        <path class="cls-4" d="M103.07,10.38l-.26.86c-.09.32-.28.55-.57.7-.29.15-.61.23-.95.23-.45,0-.84-.15-1.19-.44-.35-.29-.52-.65-.52-1.08,0-.24.05-.52.14-.84s.24-.75.43-1.3l.02-.05,2.5-6.95c.18-.51.42-.89.69-1.14.28-.25.64-.38,1.1-.38h1.17c.46,0,.82.13,1.1.38.28.25.51.63.69,1.14l2.5,6.95.02.05c.18.52.33.95.42,1.28s.15.62.15.86c0,.42-.17.78-.52,1.08-.35.29-.75.44-1.19.44-.34,0-.65-.08-.95-.23s-.48-.39-.57-.7l-.26-.86h-3.95ZM105.06,3.74h-.03l-1.27,4.29h2.58l-1.27-4.29Z"/>
      </g>
      <g>
        <path class="cls-4" d="M17.68,18.4C5.1,18.4-3.41,31.2,1.33,42.89c9.64,23.78,32.9,40.55,60.07,40.55s50.43-16.77,60.07-40.55c4.74-11.69-3.77-24.49-16.35-24.49H17.68Z"/>
        <path class="cls-2" d="M120.5,34.36c-.29-2.45-1.17-4.84-2.56-6.91-1.38-2.06-3.24-3.77-5.38-4.95-2.28-1.26-4.79-1.9-7.45-1.9H17.68c-2.67,0-5.17.64-7.45,1.9-2.14,1.18-4,2.89-5.38,4.95-1.39,2.07-2.27,4.46-2.56,6.91-.3,2.61.05,5.2,1.06,7.7,2.31,5.69,5.44,11.02,9.31,15.82.54.67,1.09,1.32,1.65,1.97,8.93-9.65,27.17-16.26,48.22-16.26s37.69,6.05,47,15.02c.2-.24.4-.48.59-.72,3.87-4.8,7-10.12,9.31-15.82,1.01-2.5,1.37-5.09,1.06-7.7Z"/>
        <path class="cls-3" d="M91.73,36.81c-4.9,0-9.15,2.87-11.17,7.02-1.23-.65-2.64-1.02-4.14-1.02h-3.22c-1.77,0-3.21,1.44-3.21,3.22s1.44,3.22,3.21,3.22h3.22c1.58,0,2.11,1.25,2.23,1.63.16.48.39,1.71-.83,2.6-1.58,1.17-3.46,1.78-5.44,1.78-2.58,0-4.97-1.04-6.73-2.94-1.76-1.89-2.63-4.37-2.45-6.96.32-4.6,3.87-8.2,8.45-8.55,1.87-.15,3.71.27,5.31,1.19,1.54.89,3.5.35,4.38-1.19.88-1.54.35-3.51-1.19-4.4-2.72-1.57-5.83-2.27-9-2.03-6.03.46-11.01,4.23-13.2,9.53-2.19-1.94-5.06-3.12-8.21-3.12-4.9,0-9.15,2.87-11.17,7.02-1.23-.65-2.64-1.02-4.14-1.02h-3.22c-1.77,0-3.21,1.44-3.21,3.22s1.44,3.22,3.21,3.22h3.22c1.58,0,2.11,1.25,2.23,1.63.16.48.39,1.71-.83,2.6-1.58,1.17-3.46,1.78-5.44,1.78-2.58,0-4.97-1.04-6.73-2.94-1.76-1.89-2.63-4.37-2.45-6.96.32-4.6,3.87-8.2,8.45-8.55,1.87-.15,3.71.27,5.31,1.19,1.54.89,3.5.35,4.38-1.19.88-1.54.35-3.51-1.19-4.4-2.72-1.57-5.84-2.27-9-2.03-7.79.6-13.83,6.71-14.37,14.53-.3,4.4,1.18,8.59,4.16,11.81,2.95,3.17,7.11,4.98,11.43,4.98,3.35,0,6.54-1.05,9.23-3.03.38-.28.73-.59,1.06-.91,2.27,2.42,5.48,3.94,9.05,3.94,4.41,0,8.29-2.32,10.49-5.81.23.28.46.56.71.83,2.95,3.17,7.11,4.98,11.43,4.98,3.35,0,6.54-1.05,9.23-3.03.38-.28.73-.59,1.06-.91,2.27,2.42,5.48,3.94,9.05,3.94,6.84,0,12.41-5.59,12.41-12.46s-5.57-12.46-12.41-12.46ZM49.76,55.28c-3.3,0-5.99-2.7-5.99-6.01s2.69-6.01,5.99-6.01,5.99,2.7,5.99,6.01-2.69,6.01-5.99,6.01ZM91.73,55.28c-3.3,0-5.99-2.7-5.99-6.01s2.69-6.01,5.99-6.01,5.99,2.7,5.99,6.01-2.69,6.01-5.99,6.01Z"/>
        <path class="cls-1" d="M93.66,35.49c-4.9,0-9.15,2.87-11.17,7.02-1.23-.65-2.64-1.02-4.14-1.02h-3.22c-1.77,0-3.21,1.44-3.21,3.22s1.44,3.22,3.21,3.22h3.22c1.58,0,2.11,1.25,2.23,1.63.16.48.39,1.71-.83,2.6-1.58,1.17-3.46,1.78-5.44,1.78-2.58,0-4.97-1.04-6.73-2.94-1.76-1.89-2.63-4.37-2.45-6.96.32-4.6,3.87-8.2,8.45-8.55,1.87-.15,3.71.27,5.31,1.19,1.54.89,3.5.35,4.38-1.19.88-1.54.35-3.51-1.19-4.4-2.72-1.57-5.83-2.27-9-2.03-6.03.46-11.01,4.23-13.2,9.53-2.19-1.94-5.06-3.12-8.21-3.12-4.9,0-9.15,2.87-11.17,7.02-1.23-.65-2.64-1.02-4.14-1.02h-3.22c-1.77,0-3.21,1.44-3.21,3.22s1.44,3.22,3.21,3.22h3.22c1.58,0,2.11,1.25,2.23,1.63.16.48.39,1.71-.83,2.6-1.58,1.17-3.46,1.78-5.44,1.78-2.58,0-4.97-1.04-6.73-2.94-1.76-1.89-2.63-4.37-2.45-6.96.32-4.6,3.87-8.2,8.45-8.55,1.87-.15,3.71.27,5.31,1.19,1.54.89,3.5.35,4.38-1.19.88-1.54.35-3.51-1.19-4.4-2.72-1.57-5.84-2.27-9-2.03-7.79.6-13.83,6.71-14.37,14.53-.3,4.4,1.18,8.59,4.16,11.81,2.95,3.17,7.11,4.98,11.43,4.98,3.35,0,6.54-1.05,9.23-3.03.38-.28.73-.59,1.06-.91,2.27,2.42,5.48,3.94,9.05,3.94,4.41,0,8.29-2.32,10.49-5.81.23.28.46.56.71.83,2.95,3.17,7.11,4.98,11.43,4.98,3.35,0,6.54-1.05,9.23-3.03.38-.28.73-.59,1.06-.91,2.27,2.42,5.48,3.94,9.05,3.94,6.84,0,12.41-5.59,12.41-12.46s-5.57-12.46-12.41-12.46ZM51.69,53.95c-3.3,0-5.99-2.7-5.99-6.01s2.69-6.01,5.99-6.01,5.99,2.7,5.99,6.01-2.69,6.01-5.99,6.01ZM93.66,53.95c-3.3,0-5.99-2.7-5.99-6.01s2.69-6.01,5.99-6.01,5.99,2.7,5.99,6.01-2.69,6.01-5.99,6.01Z"/>
        <path class="cls-6" d="M103.12,21.47c.67-.13,1.33-.22,2.01-.27.67-.05,1.35-.06,2.04-.02.69.04,1.39.13,2.09.31.17.05.35.09.53.14l.26.08c.09.03.17.06.26.09.35.13.68.26,1.01.42.16.08.33.16.49.24.16.08.32.17.47.26.16.09.31.18.46.28.15.1.3.19.45.29l.22.15.22.16c.14.11.29.21.43.32l.42.34c.14.11.27.24.4.36l.2.18s.07.06.1.09l.1.1.38.38c.13.13.24.27.37.4l.18.2c.06.07.12.14.17.21.47.55.88,1.15,1.27,1.77l.28.47c.09.16.17.32.26.48l.13.24c.04.08.08.16.12.25.08.17.16.33.23.5.28.67.53,1.36.71,2.07.37,1.41.52,2.88.43,4.32l-.02.27c0,.09-.02.18-.03.27l-.06.53c-.06.35-.11.71-.2,1.05-.04.17-.07.35-.13.52-.05.17-.1.34-.15.51-.02.08-.05.17-.08.25-.03.08-.06.17-.09.25l-.09.25c-.03.08-.07.16-.1.24-.07.16-.14.32-.21.48-.08.16-.16.31-.24.47-.04.08-.08.15-.12.23l-.13.23c-.04.07-.09.15-.13.22-.04.07-.09.15-.14.22-.1.14-.2.29-.3.42-.05.07-.1.14-.16.21l-.16.2-.16.2c-.05.07-.11.13-.17.19l-.18.18c-.06.06-.12.12-.18.18.01-.09.02-.17.04-.25l.04-.25c.01-.08.03-.16.04-.25l.03-.25.04-.24c.01-.08.03-.16.03-.24.02-.16.04-.32.05-.48.01-.08.02-.16.02-.24l.02-.24c.01-.16.03-.31.03-.47,0-.16.02-.31.03-.47v-.47c0-.08.01-.15.01-.23v-.23c0-.15,0-.3-.01-.46,0-.15-.01-.3-.02-.45,0-.07,0-.15-.01-.23l-.02-.22-.02-.22c0-.07-.02-.15-.02-.22l-.05-.44-.06-.44c-.01-.07-.02-.15-.03-.22l-.04-.22c-.09-.58-.23-1.14-.38-1.7-.14-.56-.33-1.09-.53-1.62-.05-.13-.11-.26-.16-.4l-.04-.1-.04-.1-.09-.19c-.11-.26-.24-.52-.36-.77l-.19-.38c-.03-.06-.06-.13-.1-.19l-.11-.19c-.07-.12-.13-.25-.21-.37l-.22-.36-.05-.09-.06-.09-.12-.18c-.08-.12-.15-.24-.24-.36l-.24-.35c-.08-.12-.17-.23-.25-.34-.04-.06-.08-.12-.13-.17l-.13-.17-.13-.17c-.04-.06-.09-.12-.13-.17-.18-.22-.36-.44-.56-.66-.1-.11-.19-.22-.29-.32l-.29-.32-.31-.31-.15-.16-.16-.15c-.11-.1-.21-.2-.32-.3-.11-.1-.22-.19-.33-.29-.22-.19-.44-.38-.66-.56-.23-.18-.45-.35-.69-.51-.06-.04-.12-.08-.18-.12l-.18-.12c-.12-.08-.24-.15-.37-.23-.5-.3-1.04-.58-1.6-.85-.56-.27-1.15-.52-1.76-.78-.6-.26-1.22-.52-1.83-.82Z"/>
        <path class="cls-5" d="M111.3,56.15c-.32.5-.66.99-1.01,1.47-.35.48-.72.95-1.1,1.41-.76.92-1.56,1.81-2.39,2.67-1.66,1.72-3.44,3.32-5.27,4.85-.46.38-.92.76-1.38,1.13-.46.37-.93.74-1.4,1.11l-.7.55c-.24.18-.47.36-.71.54l-.72.54-.73.53c-.98.7-1.98,1.38-3.01,2.01-.26.16-.51.32-.77.47-.26.15-.52.31-.78.46l-.79.45c-.26.15-.53.29-.8.44-1.07.57-2.15,1.13-3.25,1.63-.27.13-.55.25-.83.38-.28.12-.55.25-.84.36l-.84.35-.85.34c-2.27.88-4.59,1.62-6.95,2.22-4.73,1.19-9.6,1.8-14.48,1.83-4.88.03-9.76-.53-14.5-1.68-4.74-1.14-9.33-2.87-13.62-5.14-1.07-.57-2.13-1.16-3.16-1.79-1.03-.64-2.05-1.29-3.04-1.98-.25-.17-.49-.35-.74-.52-.24-.18-.49-.35-.73-.54l-.72-.54-.7-.54c-.93-.72-1.87-1.45-2.8-2.19-1.85-1.49-3.68-3.03-5.38-4.72-1.7-1.68-3.28-3.5-4.55-5.51,1.68,1.67,3.5,3.14,5.4,4.5,1.9,1.36,3.87,2.6,5.86,3.82l3.01,1.83.76.46.74.44c.25.15.5.29.75.43.25.14.5.29.75.43,2.01,1.12,4.06,2.14,6.16,3.05,4.19,1.81,8.55,3.19,12.99,4.1,4.44.91,8.97,1.35,13.5,1.34,4.53-.02,9.05-.5,13.49-1.45,4.44-.95,8.78-2.36,12.96-4.21,2.09-.92,4.14-1.96,6.13-3.1l.75-.43.74-.44c.25-.15.5-.3.75-.45l.75-.46c.99-.62,1.98-1.24,2.96-1.87,3.92-2.54,7.74-5.23,11.1-8.57Z"/>
      </g>
    </g>
  </g>
</svg>